Coordinates
version=1
nRows=5
nColumns=46
inDegrees=yes

Units are S.I. units (second, meters, Newtons, ...)
Angles are in degrees.

endheader
time	pelvis_tilt	pelvis_list	pelvis_rotation	pelvis_tx	pelvis_ty	pelvis_tz	bb_angle	bb_tx	bb_ty	bb_tz	hip_flexion_r	hip_adduction_r	hip_rotation_r	knee_angle_r	knee_angle_r_beta	ankle_angle_r	subtalar_angle_r	mtp_angle_r	crank_angle_r	hip_flexion_l	hip_adduction_l	hip_rotation_l	knee_angle_l	knee_angle_l_beta	ankle_angle_l	subtalar_angle_l	mtp_angle_l	crank_angle_l	lumbar_extension	lumbar_bending	lumbar_rotation	arm_flex_r	arm_add_r	arm_rot_r	elbow_flex_r	pro_sup_r	wrist_flex_r	wrist_dev_r	arm_flex_l	arm_add_l	arm_rot_l	elbow_flex_l	pro_sup_l	wrist_flex_l	wrist_dev_l
      0.00500000	    -22.87710737	      6.35851235	      2.26581318	      0.13188126	      1.10671015	     -0.26824645	      0.00000000	      0.50000000	      0.00000000	      0.25000000	     48.51466974	     -8.67382698	      3.83885162	     47.06792826	      0.82149032	      9.61191767	     -9.60399383	      0.00000000	      0.00000000	     96.83879758	     -5.53608925	     -2.66243316	    103.43043557	      1.80520165	     20.08159875	      0.09551125	      0.00000000	      0.00000000	    -43.99332692	     -2.10875024	    -12.46535487	     80.12315639	     -2.04516243	     37.83036007	     38.65526826	     29.40592717	      0.00000000	      0.00000000	     72.14759490	    -21.37445259	     26.91116982	     53.25578350	     32.81875769	      0.00000000	      0.00000000
      0.01000000	    -22.88035635	      6.30879706	      2.23679266	      0.13189830	      1.10665706	     -0.26828141	      0.00000000	      0.50000000	      0.00000000	      0.25000000	     48.52970645	     -8.62449363	      3.80399837	     47.08402376	      0.82177124	      9.51923498	     -9.61481883	      0.00000000	      0.00000000	     96.85468203	     -5.56153045	     -2.61184439	    103.44811143	      1.80551015	     20.20999884	      0.14411696	      0.00000000	      0.00000000	    -43.97143029	     -2.00780414	    -12.37317729	     80.09431813	     -1.83395705	     37.31804509	     38.42393016	     31.29001383	      0.00000000	      0.00000000	     71.98851962	    -21.20810180	     26.33065120	     52.90736609	     34.56871422	      0.00000000	      0.00000000
      0.01500000	    -22.86010881	      6.26834691	      2.21758022	      0.13193356	      1.10668455	     -0.26828545	      0.00000000	      0.50000000	      0.00000000	      0.25000000	     48.49355192	     -8.58190845	      3.78332827	     47.07152057	      0.82155302	      9.53505607	     -9.58768364	      0.00000000	      0.00000000	     96.84288383	     -5.57681620	     -2.56179644	    103.45906411	      1.80570131	     20.24501815	      0.20993787	      0.00000000	      0.00000000	    -44.00743819	     -1.98004750	    -12.36318441	     80.08314779	     -1.84593213	     37.17113970	     38.36991343	     32.60083274	      0.00000000	      0.00000000	     71.94057935	    -21.22609947	     26.13532650	     52.78277980	     35.78521594	      0.00000000	      0.00000000
      0.02000000	    -22.88834709	      6.30286311	      2.22553949	      0.13201838	      1.10665252	     -0.26838233	      0.00000000	      0.50000000	      0.00000000	      0.25000000	     48.51226985	     -8.63909918	      3.77672100	     47.06306731	      0.82140548	      9.54654269	     -9.49521557	      0.00000000	      0.00000000	     96.85123262	     -5.57177656	     -2.63402839	    103.44777842	      1.80550434	     20.24176146	      0.07449061	      0.00000000	      0.00000000	    -44.01610463	     -1.97766706	    -12.32515506	     79.97170097	     -1.98518050	     36.70453659	     38.88528989	     32.88252887	      0.00000000	      0.00000000	     71.68395572	    -21.12174936	     25.79126115	     53.13625041	     36.00778459	      0.00000000	      0.00000000
      0.02500000	    -22.89617367	      6.30286966	      2.27092267	      0.13193215	      1.10672772	     -0.26852484	      0.00000000	      0.50000000	      0.00000000	      0.25000000	     48.49968995	     -8.67194463	      3.77174792	     47.03717796	      0.82095363	      9.62186024	     -9.40287346	      0.00000000	      0.00000000	     96.85456850	     -5.49375470	     -2.63591218	    103.40272881	      1.80471807	     20.16883233	      0.01100611	      0.00000000	      0.00000000	    -44.00157065	     -1.96748157	    -12.41199351	     80.25119419	     -2.21813322	     38.11108200	     37.95516893	     35.60785688	      0.00000000	      0.00000000	     72.06860513	    -21.40111655	     26.38545871	     52.33787142	     38.78846548	      0.00000000	      0.00000000
